<mxfile host="app.diagrams.net" modified="2023-09-07T23:23:11.491Z" agent="Mozilla/5.0 (Windows NT 10.0; Win64; x64) AppleWebKit/537.36 (KHTML, like Gecko) Chrome/116.0.0.0 Safari/537.36" etag="eforhO80bT_TimpGSFsK" version="21.7.2" type="device">
  <diagram name="PÃ¡gina-1" id="iEFBQFk6kqfk-xP_mgb5">
    <mxGraphModel dx="1793" dy="938" grid="1" gridSize="10" guides="1" tooltips="1" connect="1" arrows="1" fold="1" page="1" pageScale="1" pageWidth="827" pageHeight="1169" math="0" shadow="0">
      <root>
        <mxCell id="0" />
        <mxCell id="1" parent="0" />
        <mxCell id="KtWaTGXksSJzquvTfun6-1" value="Off - State" style="whiteSpace=wrap;html=1;aspect=fixed;" parent="1" vertex="1">
          <mxGeometry x="320" y="80" width="80" height="80" as="geometry" />
        </mxCell>
        <mxCell id="KtWaTGXksSJzquvTfun6-2" value="" style="endArrow=classic;html=1;rounded=0;exitX=0.5;exitY=1;exitDx=0;exitDy=0;entryX=0.5;entryY=0;entryDx=0;entryDy=0;" parent="1" source="KtWaTGXksSJzquvTfun6-1" target="KtWaTGXksSJzquvTfun6-22" edge="1">
          <mxGeometry width="50" height="50" relative="1" as="geometry">
            <mxPoint x="320" y="130" as="sourcePoint" />
            <mxPoint x="370" y="250" as="targetPoint" />
          </mxGeometry>
        </mxCell>
        <mxCell id="KtWaTGXksSJzquvTfun6-9" value="turned on" style="edgeLabel;html=1;align=center;verticalAlign=middle;resizable=0;points=[];" parent="KtWaTGXksSJzquvTfun6-2" vertex="1" connectable="0">
          <mxGeometry x="-0.2568" y="-1" relative="1" as="geometry">
            <mxPoint as="offset" />
          </mxGeometry>
        </mxCell>
        <mxCell id="KtWaTGXksSJzquvTfun6-17" value="serve_coffee()" style="edgeStyle=orthogonalEdgeStyle;rounded=0;orthogonalLoop=1;jettySize=auto;html=1;exitX=0;exitY=0.5;exitDx=0;exitDy=0;entryX=0;entryY=0.5;entryDx=0;entryDy=0;" parent="1" source="KtWaTGXksSJzquvTfun6-3" target="KtWaTGXksSJzquvTfun6-22" edge="1">
          <mxGeometry relative="1" as="geometry">
            <mxPoint x="270" y="290" as="targetPoint" />
            <Array as="points">
              <mxPoint x="140" y="590" />
              <mxPoint x="140" y="240" />
            </Array>
          </mxGeometry>
        </mxCell>
        <mxCell id="PPflNLYRRkC_d0rlLxwX-11" style="edgeStyle=orthogonalEdgeStyle;rounded=0;orthogonalLoop=1;jettySize=auto;html=1;entryX=1;entryY=0.5;entryDx=0;entryDy=0;" edge="1" parent="1" source="KtWaTGXksSJzquvTfun6-3" target="KtWaTGXksSJzquvTfun6-1">
          <mxGeometry relative="1" as="geometry">
            <Array as="points">
              <mxPoint x="740" y="590" />
              <mxPoint x="740" y="120" />
            </Array>
          </mxGeometry>
        </mxCell>
        <mxCell id="KtWaTGXksSJzquvTfun6-3" value="Ready - State" style="whiteSpace=wrap;html=1;aspect=fixed;" parent="1" vertex="1">
          <mxGeometry x="320" y="550" width="80" height="80" as="geometry" />
        </mxCell>
        <mxCell id="KtWaTGXksSJzquvTfun6-13" value="&lt;span style=&quot;--darkreader-inline-bgcolor: #0f0d12; background-color: rgb(19, 16, 23);&quot; data-darkreader-inline-bgcolor=&quot;&quot;&gt;reach_desired_temperature()&lt;br&gt;&lt;/span&gt;" style="edgeStyle=orthogonalEdgeStyle;rounded=0;orthogonalLoop=1;jettySize=auto;html=1;" parent="1" source="KtWaTGXksSJzquvTfun6-10" target="KtWaTGXksSJzquvTfun6-3" edge="1">
          <mxGeometry relative="1" as="geometry" />
        </mxCell>
        <mxCell id="KtWaTGXksSJzquvTfun6-14" value="&lt;br&gt;" style="edgeStyle=orthogonalEdgeStyle;rounded=0;orthogonalLoop=1;jettySize=auto;html=1;entryX=1;entryY=0.5;entryDx=0;entryDy=0;exitX=1;exitY=0.5;exitDx=0;exitDy=0;" parent="1" source="KtWaTGXksSJzquvTfun6-10" edge="1" target="KtWaTGXksSJzquvTfun6-1">
          <mxGeometry relative="1" as="geometry">
            <mxPoint x="430" y="380" as="sourcePoint" />
            <mxPoint x="430" y="120" as="targetPoint" />
            <Array as="points">
              <mxPoint x="740" y="480" />
              <mxPoint x="740" y="120" />
            </Array>
          </mxGeometry>
        </mxCell>
        <mxCell id="PPflNLYRRkC_d0rlLxwX-10" value="turn_machine_off()xt" style="edgeLabel;html=1;align=center;verticalAlign=middle;resizable=0;points=[];" vertex="1" connectable="0" parent="KtWaTGXksSJzquvTfun6-14">
          <mxGeometry x="0.0707" y="-1" relative="1" as="geometry">
            <mxPoint y="-1" as="offset" />
          </mxGeometry>
        </mxCell>
        <mxCell id="KtWaTGXksSJzquvTfun6-20" value="turn_machine_off()" style="edgeStyle=orthogonalEdgeStyle;rounded=0;orthogonalLoop=1;jettySize=auto;html=1;entryX=0;entryY=0.5;entryDx=0;entryDy=0;exitX=0;exitY=0.25;exitDx=0;exitDy=0;" parent="1" target="KtWaTGXksSJzquvTfun6-1" edge="1" source="KtWaTGXksSJzquvTfun6-22">
          <mxGeometry x="-0.05" relative="1" as="geometry">
            <mxPoint x="170" y="190" as="sourcePoint" />
            <Array as="points">
              <mxPoint x="140" y="220" />
              <mxPoint x="140" y="120" />
            </Array>
            <mxPoint as="offset" />
          </mxGeometry>
        </mxCell>
        <mxCell id="KtWaTGXksSJzquvTfun6-23" value="start_heating()" style="edgeStyle=orthogonalEdgeStyle;rounded=0;orthogonalLoop=1;jettySize=auto;html=1;exitX=0.5;exitY=1;exitDx=0;exitDy=0;" parent="1" source="PPflNLYRRkC_d0rlLxwX-2" target="KtWaTGXksSJzquvTfun6-10" edge="1">
          <mxGeometry relative="1" as="geometry" />
        </mxCell>
        <mxCell id="PPflNLYRRkC_d0rlLxwX-4" value="" style="edgeStyle=orthogonalEdgeStyle;rounded=0;orthogonalLoop=1;jettySize=auto;html=1;" edge="1" parent="1" source="KtWaTGXksSJzquvTfun6-22" target="PPflNLYRRkC_d0rlLxwX-2">
          <mxGeometry relative="1" as="geometry" />
        </mxCell>
        <mxCell id="PPflNLYRRkC_d0rlLxwX-9" value="user input" style="edgeLabel;html=1;align=center;verticalAlign=middle;resizable=0;points=[];" vertex="1" connectable="0" parent="PPflNLYRRkC_d0rlLxwX-4">
          <mxGeometry x="-0.4" y="-1" relative="1" as="geometry">
            <mxPoint y="-1" as="offset" />
          </mxGeometry>
        </mxCell>
        <mxCell id="KtWaTGXksSJzquvTfun6-22" value="Waiting and Processing - State" style="whiteSpace=wrap;html=1;aspect=fixed;" parent="1" vertex="1">
          <mxGeometry x="320" y="200" width="80" height="80" as="geometry" />
        </mxCell>
        <mxCell id="PPflNLYRRkC_d0rlLxwX-7" value="user input invalid" style="edgeStyle=orthogonalEdgeStyle;rounded=0;orthogonalLoop=1;jettySize=auto;html=1;entryX=1;entryY=0.5;entryDx=0;entryDy=0;" edge="1" parent="1" source="PPflNLYRRkC_d0rlLxwX-2" target="KtWaTGXksSJzquvTfun6-22">
          <mxGeometry relative="1" as="geometry">
            <Array as="points">
              <mxPoint x="460" y="350" />
              <mxPoint x="460" y="240" />
            </Array>
          </mxGeometry>
        </mxCell>
        <mxCell id="PPflNLYRRkC_d0rlLxwX-8" value="Text" style="edgeLabel;html=1;align=center;verticalAlign=middle;resizable=0;points=[];" vertex="1" connectable="0" parent="PPflNLYRRkC_d0rlLxwX-7">
          <mxGeometry x="-0.0065" y="-2" relative="1" as="geometry">
            <mxPoint y="-1" as="offset" />
          </mxGeometry>
        </mxCell>
        <mxCell id="PPflNLYRRkC_d0rlLxwX-2" value="Validating - State" style="whiteSpace=wrap;html=1;aspect=fixed;" vertex="1" parent="1">
          <mxGeometry x="320" y="320" width="80" height="80" as="geometry" />
        </mxCell>
        <mxCell id="KtWaTGXksSJzquvTfun6-10" value="Heating - State" style="whiteSpace=wrap;html=1;aspect=fixed;" parent="1" vertex="1">
          <mxGeometry x="320" y="440" width="80" height="80" as="geometry" />
        </mxCell>
        <mxCell id="PPflNLYRRkC_d0rlLxwX-14" value="" style="whiteSpace=wrap;html=1;aspect=fixed;" vertex="1" parent="1">
          <mxGeometry x="550" y="350" width="80" height="80" as="geometry" />
        </mxCell>
      </root>
    </mxGraphModel>
  </diagram>
</mxfile>
